<mxfile host="app.diagrams.net" modified="2024-01-30T14:35:57.941Z" agent="Mozilla/5.0 (Macintosh; Intel Mac OS X 10_15_7) AppleWebKit/537.36 (KHTML, like Gecko) Chrome/121.0.0.0 Safari/537.36" etag="uFH4sUdazhyuMbTMNAjm" version="23.0.2" type="gitlab">
  <diagram name="Page-1" id="d4JAbu9kzjHII9pmb_6L">
    <mxGraphModel dx="1194" dy="731" grid="1" gridSize="10" guides="1" tooltips="1" connect="1" arrows="1" fold="1" page="1" pageScale="1" pageWidth="850" pageHeight="1100" math="0" shadow="0">
      <root>
        <mxCell id="0" />
        <mxCell id="1" parent="0" />
        <mxCell id="NKV4qqg-6acsoxni6Tf5-2" value="" style="whiteSpace=wrap;html=1;aspect=fixed;" vertex="1" parent="1">
          <mxGeometry x="380" y="150" width="250" height="250" as="geometry" />
        </mxCell>
      </root>
    </mxGraphModel>
  </diagram>
</mxfile>
